# xmcd CD database file
#
# Track frame offsets:
#	150
#	17703
#	40738
#	59134
#	76075
#	93342
#	120109
#	140112
#	164429
#
# Disc length: 2433 seconds
#
# Revision: 0
# Processed by: cddbd v1.5.1PL0 Copyright (c) Steve Scherf et al.
# Submitted via: CDex 1.50
#
DISCID=6e097f09
DTITLE=The Butterfiled Blues Band - Sometimes I Feel Like Smilin'
DYEAR=1900
DGENRE=Blues
TTITLE0=Play On
TTITLE1=1000 Ways
TTITLE2=Pretty woman
TTITLE3=A Little Piece Of Dying
TTITLE4=Song For Lee
TTITLE5=Trainman
TTITLE6=Night Child
TTITLE7=Drowned In My Own Tears
TTITLE8=Blind Leading The Blind
EXTD=
EXTT0=
EXTT1=
EXTT2=
EXTT3=
EXTT4=
EXTT5=
EXTT6=
EXTT7=
EXTT8=
PLAYORDER=
